<svg xmlns="http://www.w3.org/2000/svg" xmlns:xlink="http://www.w3.org/1999/xlink" viewBox="0 0 747 394"><defs><style>.cls-1,.cls-22{fill:none;}.cls-2{isolation:isolate;}.cls-3{clip-path:url(#clip-path);}.cls-4{fill:#7ac6f4;}.cls-5{fill:#f0fbff;}.cls-6{fill:#d4f7ff;}.cls-7{clip-path:url(#clip-path-2);}.cls-8,.cls-9{fill:#fc3;}.cls-9{opacity:0.16;}.cls-10{fill:#d86552;}.cls-11{clip-path:url(#clip-path-3);}.cls-12{fill:#664240;}.cls-13{clip-path:url(#clip-path-4);}.cls-14{fill:#f7c263;}.cls-15{fill:#f99178;}.cls-16{fill:#c15142;}.cls-17{fill:#ea7b65;}.cls-18{clip-path:url(#clip-path-5);}.cls-19{fill:#fff;}.cls-20{opacity:0.3;mix-blend-mode:color-burn;}.cls-21{fill:url(#linear-gradient);}.cls-22{stroke:#fbb03b;stroke-miterlimit:10;}.cls-23{fill:url(#linear-gradient-2);}</style><clipPath id="clip-path" transform="translate(-39 -92)"><path class="cls-1" d="M140,140c-63,0-80,40-80,100,0,159,179,240,320,240,139,0,360-81,360-185,0-60-37-93-89-93-45,0-52,52.16-179,53C320,256,233,140,140,140Z"/></clipPath><clipPath id="clip-path-2" transform="translate(-39 -92)"><path class="cls-1" d="M411,127c-16.95,0-29,8-29,26,0,21,73,53,111,53,56,0,129-30,129-63,0-30-11.06-48-33-48-40.19,0-61,53-103,53C458.54,148,440.24,127,411,127Z"/></clipPath><clipPath id="clip-path-3" transform="translate(-39 -92)"><path class="cls-1" d="M587,255h4a4,4,0,0,1,4,4v8a20,20,0,0,1-20,20H555a0,0,0,0,1,0,0v0A32,32,0,0,1,587,255Z"/></clipPath><clipPath id="clip-path-4" transform="translate(-39 -92)"><path class="cls-1" d="M555,287h20a20,20,0,0,1,20,20v8a4,4,0,0,1-4,4h-4a32,32,0,0,1-32-32v0A0,0,0,0,1,555,287Z"/></clipPath><clipPath id="clip-path-5" transform="translate(-39 -92)"><path class="cls-1" d="M615,287c0-21-168-56-232-56-110.46,0-168,25.07-168,56s57.54,56,168,56C461,343,615,310,615,287Z"/></clipPath><linearGradient id="linear-gradient" x1="381.92" y1="149.84" x2="621.92" y2="149.84" gradientUnits="userSpaceOnUse"><stop offset="0" stop-color="#662d91"/><stop offset="1" stop-color="#fbb03b" stop-opacity="0.3"/></linearGradient><linearGradient id="linear-gradient-2" x1="59.92" y1="309.34" x2="739.92" y2="309.34" xlink:href="#linear-gradient"/></defs><g class="cls-2"><g id="background"><g class="cls-3"><path class="cls-4" d="M140,140c-63,0-80,40-80,100,0,159,179,240,320,240,139,0,360-81,360-185,0-60-37-93-89-93-45,0-52,52.16-179,53C320,256,233,140,140,140Z" transform="translate(-39 -92)"/><circle class="cls-5" cx="533" cy="351" r="19"/><circle class="cls-6" cx="58" cy="224" r="28"/><circle class="cls-6" cx="653.5" cy="258.5" r="31.5"/><circle class="cls-6" cx="622" cy="289" r="20"/><circle class="cls-5" cx="36" cy="203" r="36"/><circle class="cls-5" cx="98.5" cy="299.5" r="20.5"/><circle class="cls-5" cx="141.5" cy="338.5" r="44.5"/><circle class="cls-5" cx="590" cy="342" r="52"/><circle class="cls-5" cx="642" cy="309" r="31"/><circle class="cls-5" cx="665" cy="269" r="22"/><circle class="cls-6" cx="70.5" cy="258.5" r="12.5"/><circle class="cls-5" cx="78" cy="280" r="13"/><circle class="cls-5" cx="45" cy="260" r="27"/><circle class="cls-5" cx="704" cy="227" r="43"/></g><g class="cls-7"><path class="cls-4" d="M411,127c-16.95,0-29,8-29,26,0,21,73,53,111,53,56,0,129-30,129-63,0-30-11.06-48-33-48-40.19,0-61,53-103,53C458.54,148,440.24,127,411,127Z" transform="translate(-39 -92)"/><circle class="cls-8" cx="583" cy="50" r="20"/><circle class="cls-9" cx="583" cy="50" r="50"/><circle class="cls-9" cx="583" cy="50" r="40"/><circle class="cls-9" cx="583" cy="50" r="30"/></g><path class="cls-5" d="M444,154a7.25,7.25,0,0,0-5-2c-3.13,0-6,1.11-6,2" transform="translate(-39 -92)"/><path class="cls-5" d="M438,154s-3-5-6-5-5,5-5,5" transform="translate(-39 -92)"/><path class="cls-5" d="M433,154s-3.71-3-7-3a6.22,6.22,0,0,0-5,3" transform="translate(-39 -92)"/><path class="cls-5" d="M533.47,183.74s5.87-2,9-2,6,1.11,6,2" transform="translate(-39 -92)"/><path class="cls-5" d="M543.47,183.74s3-6,6-6,5,6,5,6" transform="translate(-39 -92)"/><path class="cls-5" d="M548.47,183.74s5.71-4,9-4,5,4,5,4" transform="translate(-39 -92)"/></g><g id="zeppelin"><path class="cls-10" d="M548,163h4a4,4,0,0,1,4,4v8a20,20,0,0,1-20,20H516a0,0,0,0,1,0,0v0A32,32,0,0,1,548,163Z"/><g class="cls-11"><rect class="cls-12" x="548" y="163" width="8" height="32"/></g><circle class="cls-12" cx="548" cy="171" r="4"/><path class="cls-10" d="M516,195h20a20,20,0,0,1,20,20v8a4,4,0,0,1-4,4h-4a32,32,0,0,1-32-32v0A0,0,0,0,1,516,195Z"/><g class="cls-13"><rect class="cls-12" x="548" y="195" width="8" height="32"/></g><circle class="cls-12" cx="548" cy="220" r="4"/><path class="cls-12" d="M396,353H365c-5,0-8-5.63-8-8v-4h48v5C405,348.19,402,353,396,353Z" transform="translate(-39 -92)"/><rect class="cls-14" x="327" y="255" width="2" height="2"/><rect class="cls-14" x="331" y="255" width="2" height="2"/><rect class="cls-14" x="335" y="255" width="2" height="2"/><rect class="cls-14" x="339" y="255" width="2" height="2"/><rect class="cls-14" x="343" y="255" width="2" height="2"/><rect class="cls-14" x="347" y="255" width="2" height="2"/><rect class="cls-14" x="351" y="255" width="2" height="2"/><rect class="cls-14" x="355" y="255" width="2" height="2"/><path class="cls-15" d="M615,287c0-21-168-56-232-56-110.46,0-168,25.07-168,56s57.54,56,168,56C461,343,615,310,615,287Z" transform="translate(-39 -92)"/><path class="cls-16" d="M215,287c0,30.93,57.54,56,168,56,78,0,232-33,232-56" transform="translate(-39 -92)"/><path class="cls-16" d="M215,287c0,30.93,57.54,56,168,56,78,0,232-33,232-56" transform="translate(-39 -92)"/><path class="cls-17" d="M615,287c0-21-168-40-232-40-110.46,0-168,9.07-168,40s57.54,40,168,40C461,327,615,310,615,287Z" transform="translate(-39 -92)"/><path class="cls-10" d="M215,287c0,30.93,57.54,40,168,40,78,0,232-17,232-40" transform="translate(-39 -92)"/><polygon class="cls-12" points="180 197 167 196 167 194 180 193 180 197"/><g class="cls-18"><rect class="cls-12" x="172" y="139" width="8" height="112"/></g><path class="cls-12" d="M597,287c0,2.21-12.31,4-22.8,4s-15.2-1.79-15.2-4,4.71-4,15.2-4S597,284.79,597,287Z" transform="translate(-39 -92)"/><ellipse class="cls-12" cx="254" cy="158" rx="2" ry="1"/><ellipse class="cls-12" cx="254" cy="195" rx="2" ry="1"/><ellipse class="cls-12" cx="254" cy="232" rx="2" ry="1"/><ellipse class="cls-12" cx="338" cy="155" rx="2" ry="1"/><ellipse class="cls-12" cx="338" cy="195" rx="2" ry="1"/><ellipse class="cls-12" cx="338" cy="235" rx="2" ry="1"/><ellipse class="cls-12" cx="506" cy="171" rx="2" ry="1"/><ellipse class="cls-12" cx="506" cy="195" rx="2" ry="1"/><ellipse class="cls-12" cx="506" cy="221" rx="2" ry="1"/><ellipse class="cls-12" cx="422" cy="160" rx="2" ry="1"/><ellipse class="cls-12" cx="422" cy="195" rx="2" ry="1"/><ellipse class="cls-12" cx="422" cy="231" rx="2" ry="1"/><path class="cls-12" d="M437,322c0,2.21-4.69,4-8,4s-4-1.79-4-4,.69-4,4-4S437,319.79,437,322Z" transform="translate(-39 -92)"/><rect class="cls-19" x="378" y="260" width="46" height="1"/><rect class="cls-19" x="570" y="226" width="42" height="1"/><rect class="cls-19" x="593" y="194" width="62" height="1"/><path class="cls-5" d="M242,214.57a8.61,8.61,0,0,0-6.2-2.78c-3.87,0-7.43,1.54-7.43,2.78" transform="translate(-39 -92)"/><path class="cls-5" d="M234.56,214.57s-3.76-6.95-7.43-6.95-6.2,6.95-6.2,6.95" transform="translate(-39 -92)"/><path class="cls-5" d="M228.37,214.57s-4.6-4.17-8.68-4.17-6.19,4.17-6.19,4.17" transform="translate(-39 -92)"/><path class="cls-5" d="M542,301.07S526.09,298,517,298s-18.61.17-18.61,3.07" transform="translate(-39 -92)"/><path class="cls-5" d="M514.23,301.07S506,283,497.39,283s-15.13,18.07-15.13,18.07" transform="translate(-39 -92)"/><path class="cls-5" d="M499.7,301.07s-16.6-13-26.16-13-14.54,13-14.54,13" transform="translate(-39 -92)"/><path class="cls-5" d="M294.47,404.74s5.87-2,9-2,6,1.11,6,2" transform="translate(-39 -92)"/><path class="cls-5" d="M304.47,404.74s3-6,6-6,5,6,5,6" transform="translate(-39 -92)"/><path class="cls-5" d="M308.47,404.74S312.71,401,316,401s6.47,3.74,6.47,3.74" transform="translate(-39 -92)"/></g><g id="gradient"><g class="cls-20"><path class="cls-21" d="M621.92,142.34c0,33-73,63-129,63-38,0-111-32-111-53,0-18,12.05-26,29-26,29.24,0,47.55,21,75,21,42,0,62.81-53,103-53C610.87,94.34,621.92,112.34,621.92,142.34Z" transform="translate(-39 -92)"/><path class="cls-22" d="M621.92,142.34c0,33-73,63-129,63-38,0-111-32-111-53,0-18,12.05-26,29-26,29.24,0,47.55,21,75,21,42,0,62.81-53,103-53C610.87,94.34,621.92,112.34,621.92,142.34Z" transform="translate(-39 -92)"/><path class="cls-23" d="M739.92,294.34c0,104-221,185-360,185-141,0-320-81-320-240,0-60,17-100,80-100,65.77,0,128.54,58,213.43,91.65q14.08-.65,29.57-.65c32.1,0,90.35,8.8,140.45,20.22C602,238.45,613,201.34,650.92,201.34,702.92,201.34,739.92,234.34,739.92,294.34Z" transform="translate(-39 -92)"/><path class="cls-22" d="M739.92,294.34c0,104-221,185-360,185-141,0-320-81-320-240,0-60,17-100,80-100,65.77,0,128.54,58,213.43,91.65q14.08-.65,29.57-.65c32.1,0,90.35,8.8,140.45,20.22C602,238.45,613,201.34,650.92,201.34,702.92,201.34,739.92,234.34,739.92,294.34Z" transform="translate(-39 -92)"/></g></g></g></svg>