<svg xmlns="http://www.w3.org/2000/svg" xmlns:xlink="http://www.w3.org/1999/xlink" viewBox="0 0 329 122"><defs><style>.cls-1{isolation:isolate;}.cls-2{fill:url(#New_Gradient_Swatch_2);}.cls-10,.cls-3{mix-blend-mode:color-burn;}.cls-4{fill:url(#New_Gradient_Swatch_2-2);}.cls-5{fill:url(#New_Gradient_Swatch_2-3);}.cls-6{fill:url(#New_Gradient_Swatch_2-4);}.cls-7{fill:url(#linear-gradient);}.cls-10,.cls-8{fill:#031500;opacity:0.3;}.cls-9{fill:url(#linear-gradient-2);}.cls-11{fill:url(#linear-gradient-3);}.cls-12{fill:url(#linear-gradient-4);}.cls-13{fill:#666;}.cls-14{fill:#b3b3b3;}.cls-15{fill:#ccc;}.cls-16{fill:url(#linear-gradient-5);}.cls-17{opacity:0.5;fill:url(#linear-gradient-6);}.cls-18{fill:#000415;mix-blend-mode:hard-light;}.cls-18,.cls-20{opacity:0.7;}.cls-19{fill:url(#linear-gradient-7);}.cls-20{fill:#0d2a58;mix-blend-mode:darken;}.cls-21{fill:url(#linear-gradient-8);}.cls-22{fill:url(#linear-gradient-9);}.cls-23{fill:url(#New_Gradient_Swatch_2-5);}.cls-24{fill:url(#New_Gradient_Swatch_2-6);}.cls-25{fill:url(#New_Gradient_Swatch_2-7);}.cls-26{fill:url(#New_Gradient_Swatch_2-8);}.cls-27{fill:url(#New_Gradient_Swatch_2-9);}.cls-28{fill:url(#New_Gradient_Swatch_2-10);}</style><linearGradient id="New_Gradient_Swatch_2" x1="189.08" y1="73.89" x2="189.58" y2="73.89" gradientTransform="translate(22.37 -13.85)" gradientUnits="userSpaceOnUse"><stop offset="0" stop-color="#8b9298"/><stop offset="0.15" stop-color="#e5e2e9"/><stop offset="0.35" stop-color="#4f5053"/><stop offset="0.55" stop-color="#e0e0e0"/><stop offset="0.85" stop-color="#8b9298"/><stop offset="1" stop-color="#d1d3d4"/></linearGradient><linearGradient id="New_Gradient_Swatch_2-2" x1="146.89" y1="9.15" x2="177.07" y2="9.15" gradientTransform="translate(224.25 -101.93) rotate(90)" xlink:href="#New_Gradient_Swatch_2"/><linearGradient id="New_Gradient_Swatch_2-3" x1="216.14" y1="73.89" x2="216.64" y2="73.89" xlink:href="#New_Gradient_Swatch_2"/><linearGradient id="New_Gradient_Swatch_2-4" x1="152.37" y1="-30.88" x2="171.58" y2="-30.88" gradientTransform="translate(224.25 -101.93) rotate(90)" xlink:href="#New_Gradient_Swatch_2"/><linearGradient id="linear-gradient" x1="158.31" y1="89.34" x2="185.75" y2="89.34" gradientTransform="translate(321.4 -111.98) rotate(90)" gradientUnits="userSpaceOnUse"><stop offset="0" stop-color="#8b9298"/><stop offset="0" stop-color="#8f969c"/><stop offset="0.01" stop-color="#aaadb4"/><stop offset="0.02" stop-color="#c0c1c7"/><stop offset="0.04" stop-color="#d1d0d7"/><stop offset="0.06" stop-color="#dcdae1"/><stop offset="0.08" stop-color="#e3e0e7"/><stop offset="0.15" stop-color="#e5e2e9"/><stop offset="0.16" stop-color="#c5c3c9"/><stop offset="0.17" stop-color="#a6a4aa"/><stop offset="0.18" stop-color="#8a8a8e"/><stop offset="0.2" stop-color="#747478"/><stop offset="0.22" stop-color="#636467"/><stop offset="0.24" stop-color="#58585c"/><stop offset="0.27" stop-color="#515255"/><stop offset="0.35" stop-color="#4f5053"/><stop offset="0.36" stop-color="#6a6b6d"/><stop offset="0.37" stop-color="#898a8c"/><stop offset="0.38" stop-color="#a5a5a6"/><stop offset="0.4" stop-color="#bbbbbc"/><stop offset="0.42" stop-color="#ccc"/><stop offset="0.44" stop-color="#d7d7d8"/><stop offset="0.47" stop-color="#dedede"/><stop offset="0.55" stop-color="#e0e0e0"/><stop offset="0.57" stop-color="#c6c8ca"/><stop offset="0.6" stop-color="#b0b4b8"/><stop offset="0.62" stop-color="#9fa5a9"/><stop offset="0.66" stop-color="#949a9f"/><stop offset="0.71" stop-color="#8d949a"/><stop offset="0.85" stop-color="#8b9298"/><stop offset="0.86" stop-color="#969ca1"/><stop offset="0.87" stop-color="#acb0b4"/><stop offset="0.88" stop-color="#bdc0c2"/><stop offset="0.9" stop-color="#c8cbcd"/><stop offset="0.93" stop-color="#cfd1d2"/><stop offset="1" stop-color="#d1d3d4"/></linearGradient><linearGradient id="linear-gradient-2" x1="158.31" y1="110.13" x2="185.75" y2="110.13" xlink:href="#linear-gradient"/><linearGradient id="linear-gradient-3" x1="158.31" y1="96.45" x2="185.75" y2="96.45" xlink:href="#linear-gradient"/><linearGradient id="linear-gradient-4" x1="158.22" y1="102.99" x2="185.66" y2="102.99" xlink:href="#linear-gradient"/><linearGradient id="linear-gradient-5" x1="159.67" y1="206.98" x2="184.38" y2="206.98" xlink:href="#linear-gradient"/><linearGradient id="linear-gradient-6" x1="172.03" y1="302.19" x2="172.03" y2="111.77" gradientTransform="translate(321.4 -111.98) rotate(90)" gradientUnits="userSpaceOnUse"><stop offset="0"/><stop offset="0.1" stop-opacity="0.47"/><stop offset="0.7" stop-opacity="0"/></linearGradient><linearGradient id="linear-gradient-7" x1="176.11" y1="260.76" x2="231.54" y2="261.73" gradientTransform="translate(321.4 -111.98) rotate(90)" gradientUnits="userSpaceOnUse"><stop offset="0" stop-color="#8b9298"/><stop offset="0.02" stop-color="#969ca1"/><stop offset="0.06" stop-color="#acb0b4"/><stop offset="0.11" stop-color="#bdc0c2"/><stop offset="0.17" stop-color="#c8cbcd"/><stop offset="0.26" stop-color="#cfd1d2"/><stop offset="0.5" stop-color="#d1d3d4"/><stop offset="0.52" stop-color="#d7d9d9"/><stop offset="0.57" stop-color="#dededf"/><stop offset="0.7" stop-color="#e0e0e0"/><stop offset="0.72" stop-color="#ebebeb"/><stop offset="0.77" stop-color="#f6f6f6"/><stop offset="0.83" stop-color="#fdfdfd"/><stop offset="1" stop-color="#fff"/></linearGradient><linearGradient id="linear-gradient-8" x1="113.15" y1="260.94" x2="168.71" y2="260.94" gradientTransform="translate(321.4 -111.98) rotate(90)" gradientUnits="userSpaceOnUse"><stop offset="0" stop-color="#fff"/><stop offset="0.02" stop-color="#f4f4f4"/><stop offset="0.05" stop-color="#e9e9e9"/><stop offset="0.09" stop-color="#e2e2e2"/><stop offset="0.2" stop-color="#e0e0e0"/><stop offset="0.22" stop-color="#dadadb"/><stop offset="0.27" stop-color="#d3d5d5"/><stop offset="0.4" stop-color="#d1d3d4"/><stop offset="0.42" stop-color="#c6c9cb"/><stop offset="0.47" stop-color="#b0b5b8"/><stop offset="0.53" stop-color="#9fa5aa"/><stop offset="0.61" stop-color="#949a9f"/><stop offset="0.71" stop-color="#8d949a"/><stop offset="1" stop-color="#8b9298"/></linearGradient><linearGradient id="linear-gradient-9" x1="120.66" y1="259.28" x2="159" y2="259.28" gradientTransform="translate(318.1 -98.85) rotate(90)" gradientUnits="userSpaceOnUse"><stop offset="0" stop-color="#fff"/><stop offset="0.01" stop-color="#f6f7f7"/><stop offset="0.03" stop-color="#e5e7e7"/><stop offset="0.06" stop-color="#dadbdc"/><stop offset="0.09" stop-color="#d3d5d6"/><stop offset="0.2" stop-color="#d1d3d4"/><stop offset="0.22" stop-color="#c6c9cb"/><stop offset="0.27" stop-color="#b0b5b8"/><stop offset="0.33" stop-color="#9fa5aa"/><stop offset="0.41" stop-color="#949a9f"/><stop offset="0.51" stop-color="#8d949a"/><stop offset="0.8" stop-color="#8b9298"/><stop offset="0.81" stop-color="#81888e"/><stop offset="0.84" stop-color="#767d83"/><stop offset="0.89" stop-color="#6f767c"/><stop offset="1" stop-color="#6d747a"/></linearGradient><linearGradient id="New_Gradient_Swatch_2-5" x1="195.48" y1="73.78" x2="195.98" y2="73.78" xlink:href="#New_Gradient_Swatch_2"/><linearGradient id="New_Gradient_Swatch_2-6" x1="146.77" y1="2.75" x2="176.95" y2="2.75" gradientTransform="translate(224.25 -101.93) rotate(90)" xlink:href="#New_Gradient_Swatch_2"/><linearGradient id="New_Gradient_Swatch_2-7" x1="202.48" y1="73.78" x2="202.98" y2="73.78" xlink:href="#New_Gradient_Swatch_2"/><linearGradient id="New_Gradient_Swatch_2-8" x1="146.77" y1="-4.25" x2="176.95" y2="-4.25" gradientTransform="translate(224.25 -101.93) rotate(90)" xlink:href="#New_Gradient_Swatch_2"/><linearGradient id="New_Gradient_Swatch_2-9" x1="204.85" y1="73.78" x2="206.93" y2="73.78" xlink:href="#New_Gradient_Swatch_2"/><linearGradient id="New_Gradient_Swatch_2-10" x1="146.77" y1="-18.17" x2="176.95" y2="-18.17" gradientTransform="translate(224.25 -101.93) rotate(90)" xlink:href="#New_Gradient_Swatch_2"/></defs><g class="cls-1"><g id="Layer_1" data-name="Layer 1"><rect class="cls-2" x="212.91" y="44.95" width="4.38" height="30.18"/><g class="cls-3"><rect class="cls-4" x="212.91" y="44.95" width="4.38" height="30.18"/></g><path class="cls-5" d="M251.31,69.65V50.44h4.37c1.82,0,3.29,1.84,3.29,4.12v11c0,2.28-1.47,4.12-3.29,4.12Z"/><g class="cls-3"><path class="cls-6" d="M251.31,69.65V50.44h4.37c1.82,0,3.29,1.84,3.29,4.12v11c0,2.28-1.47,4.12-3.29,4.12Z"/></g><rect class="cls-7" x="230.42" y="46.33" width="3.28" height="27.44"/><rect class="cls-8" x="230.42" y="46.33" width="3.28" height="27.44"/><path class="cls-9" d="M209.63,72.54v-25a1.22,1.22,0,0,1,1.22-1.22h2.06V73.76h-2.06A1.22,1.22,0,0,1,209.63,72.54Z"/><path class="cls-10" d="M209.63,72.54v-25a1.22,1.22,0,0,1,1.22-1.22h2.06V73.76h-2.06A1.22,1.22,0,0,1,209.63,72.54Z"/><rect class="cls-11" x="223.85" y="46.33" width="2.19" height="27.44"/><rect class="cls-8" x="223.85" y="46.33" width="2.19" height="27.44"/><rect class="cls-12" x="217.32" y="46.24" width="2.19" height="27.44"/><rect class="cls-8" x="217.32" y="46.24" width="2.19" height="27.44"/><polygon class="cls-13" points="258.97 62.79 258.97 60.05 258.97 57.3 276.48 57.3 326.82 60.05 276.48 62.79 258.97 62.79"/><polygon class="cls-14" points="276.48 57.3 258.97 57.3 258.97 58.67 301.65 58.67 276.48 57.3"/><polygon class="cls-15" points="301.65 58.67 258.97 58.67 258.97 60.05 326.82 60.05 301.65 58.67"/><g class="cls-3"><path class="cls-16" d="M19.21,65.53v-11c63.46-3.4,127-7.08,190.42-6.86V72.39C146.17,72.61,82.67,68.93,19.21,65.53Z"/><path class="cls-17" d="M19.21,65.53v-11c63.46-3.4,127-7.08,190.42-6.86V72.39C146.17,72.61,82.67,68.93,19.21,65.53Z"/><path class="cls-18" d="M19.21,65.53v-11c63.46-3.4,127-7.08,190.42-6.86V72.39C146.17,72.61,82.67,68.93,19.21,65.53Z"/></g><path class="cls-19" d="M4.65,84.17V80c0-9.45,5.17-17,11.37-16.64l100.25,6L63.49,109.48C52.27,118,39.57,121,27.18,118l-4.06-1C12.49,114.5,4.65,100.55,4.65,84.17Z"/><path class="cls-20" d="M4.65,84.17V80c0-9.45,5.17-17,11.37-16.64l100.25,6L63.49,109.48C52.27,118,39.57,121,27.18,118l-4.06-1C12.49,114.5,4.65,100.55,4.65,84.17Z"/><path class="cls-21" d="M4.65,36v4.16c0,9.41,5.17,16.93,11.37,16.56l100.25-6-52.78-40C52.27,2.3,39.57-.68,27.18,2.29l-4.06,1C12.49,5.8,4.65,19.68,4.65,36Z"/><path class="cls-20" d="M4.65,36v4.16c0,9.41,5.17,16.93,11.37,16.56l100.25-6-52.78-40C52.27,2.3,39.57-.68,27.18,2.29l-4.06,1C12.49,5.8,4.65,19.68,4.65,36Z"/><path class="cls-22" d="M18.47,59.2,7,52.32c-8.58-5.16-7-27.85,2-29l6.5-.83c16.77-2.13,33.63.68,49.9,8.32l50.82,23.85-94.2,5.47A6.13,6.13,0,0,1,18.47,59.2Z"/><path class="cls-20" d="M18.47,59.2,7,52.32c-8.58-5.16-7-27.85,2-29l6.5-.83c16.77-2.13,33.63.68,49.9,8.32l50.82,23.85-94.2,5.47A6.13,6.13,0,0,1,18.47,59.2Z"/><rect class="cls-23" x="219.32" y="44.84" width="4.38" height="30.18"/><g class="cls-3"><rect class="cls-24" x="219.32" y="44.84" width="4.38" height="30.18"/></g><rect class="cls-25" x="226.32" y="44.84" width="4.38" height="30.18"/><g class="cls-3"><rect class="cls-26" x="226.32" y="44.84" width="4.38" height="30.18"/></g><path class="cls-27" d="M233.32,75V44.84h14.2a4,4,0,0,1,4,4V71a4,4,0,0,1-4,4Z"/><g class="cls-3"><path class="cls-28" d="M233.32,75V44.84h14.2a4,4,0,0,1,4,4V71a4,4,0,0,1-4,4Z"/></g></g></g></svg>