<?xml version="1.0" encoding="utf-8"?>
<!-- Generator: Adobe Illustrator 24.1.0, SVG Export Plug-In . SVG Version: 6.00 Build 0)  -->
<svg version="1.1" id="Capa_1" xmlns="http://www.w3.org/2000/svg" xmlns:xlink="http://www.w3.org/1999/xlink" x="0px" y="0px"
	 viewBox="0 0 72.6 24" style="enable-background:new 0 0 72.6 24;" xml:space="preserve">
<g>
	<g>
		<g>
			<path d="M4.5,0.9L2.1,9.3C0.8,9.7,0,10.8,0,12.1s0.9,2.4,2.1,2.8l2.4,8.4C4.6,23.7,5,24,5.5,24h10.3c0.4,0,0.7-0.2,0.9-0.5
				l4.8-8.5h8.3c0.7,0.8,1.6,1.3,2.6,1.3H36V7.9h-3.6c-0.9,0-1.8,0.4-2.5,1c-0.1,0.1-0.1,0.2-0.2,0.3h-8.2l-4.9-8.5
				c0-0.1-0.1-0.1-0.2-0.2c-0.2-0.2-0.4-0.3-0.7-0.3H5.5C5,0.2,4.6,0.5,4.5,0.9z M28.9,11.4v1.4c0,0.1,0,0.1,0,0.2h-8l0,0L3,13
				c-0.6,0-1-0.4-1-0.9c0-0.6,0.5-0.9,0.9-0.9h18l0,0h8C28.9,11.3,28.9,11.3,28.9,11.4z"/>
			<path d="M46.2,7.9v8.4h-3.1V7.9H46.2z"/>
			<path d="M55.6,16.3c0.9,0,1.8-0.4,2.5-1c0.6-0.6,0.9-1.4,1-2.2h12.5c0.6,0,1-0.4,1-1c0-0.3-0.1-0.5-0.3-0.7
				c-0.2-0.2-0.4-0.3-0.7-0.3H59.1c-0.1-0.8-0.4-1.6-1-2.2c-0.7-0.7-1.5-1-2.5-1H53v8.4L55.6,16.3z"/>
			<path d="M41,7.9v8.4h-3.1V7.9H41z"/>
			<path d="M51,7.9v8.4h-2.8V7.9H51z"/>
		</g>
	</g>
</g>
</svg>
