<svg id="zeppelin" xmlns="http://www.w3.org/2000/svg" xmlns:xlink="http://www.w3.org/1999/xlink" viewBox="0 0 409 122"><defs><style>.cls-1{fill:none;}.cls-2{fill:#d86552;}.cls-3{clip-path:url(#clip-path);}.cls-4{fill:#664240;}.cls-5{clip-path:url(#clip-path-2);}.cls-6{fill:#f7c263;}.cls-7{fill:#f99178;}.cls-8{fill:#c15142;}.cls-9{fill:#ea7b65;}.cls-10{clip-path:url(#clip-path-3);}</style><clipPath id="clip-path" transform="translate(-206 -231)"><path class="cls-1" d="M587,255h4a4,4,0,0,1,4,4v8a20,20,0,0,1-20,20H555a0,0,0,0,1,0,0v0A32,32,0,0,1,587,255Z"/></clipPath><clipPath id="clip-path-2" transform="translate(-206 -231)"><path class="cls-1" d="M555,287h20a20,20,0,0,1,20,20v8a4,4,0,0,1-4,4h-4a32,32,0,0,1-32-32v0A0,0,0,0,1,555,287Z"/></clipPath><clipPath id="clip-path-3" transform="translate(-206 -231)"><path class="cls-1" d="M615,287c0-21-168-56-232-56-110.46,0-168,25.07-168,56s57.54,56,168,56C461,343,615,310,615,287Z"/></clipPath></defs><path class="cls-2" d="M381,24h4a4,4,0,0,1,4,4v8a20,20,0,0,1-20,20H349a0,0,0,0,1,0,0v0A32,32,0,0,1,381,24Z"/><g class="cls-3"><rect class="cls-4" x="381" y="24" width="8" height="32"/></g><circle class="cls-4" cx="381" cy="32" r="4"/><path class="cls-2" d="M349,56h20a20,20,0,0,1,20,20v8a4,4,0,0,1-4,4h-4a32,32,0,0,1-32-32v0A0,0,0,0,1,349,56Z"/><g class="cls-5"><rect class="cls-4" x="381" y="56" width="8" height="32"/></g><circle class="cls-4" cx="381" cy="81" r="4"/><path class="cls-4" d="M396,353H365c-5,0-8-5.63-8-8v-4h48v5C405,348.19,402,353,396,353Z" transform="translate(-206 -231)"/><rect class="cls-6" x="160" y="116" width="2" height="2"/><rect class="cls-6" x="164" y="116" width="2" height="2"/><rect class="cls-6" x="168" y="116" width="2" height="2"/><rect class="cls-6" x="172" y="116" width="2" height="2"/><rect class="cls-6" x="176" y="116" width="2" height="2"/><rect class="cls-6" x="180" y="116" width="2" height="2"/><rect class="cls-6" x="184" y="116" width="2" height="2"/><rect class="cls-6" x="188" y="116" width="2" height="2"/><path class="cls-7" d="M615,287c0-21-168-56-232-56-110.46,0-168,25.07-168,56s57.54,56,168,56C461,343,615,310,615,287Z" transform="translate(-206 -231)"/><path class="cls-8" d="M215,287c0,30.93,57.54,56,168,56,78,0,232-33,232-56" transform="translate(-206 -231)"/><path class="cls-8" d="M215,287c0,30.93,57.54,56,168,56,78,0,232-33,232-56" transform="translate(-206 -231)"/><path class="cls-9" d="M615,287c0-21-168-40-232-40-110.46,0-168,9.07-168,40s57.54,40,168,40C461,327,615,310,615,287Z" transform="translate(-206 -231)"/><path class="cls-2" d="M215,287c0,30.93,57.54,40,168,40,78,0,232-17,232-40" transform="translate(-206 -231)"/><polygon class="cls-4" points="13 58 0 57 0 55 13 54 13 58"/><g class="cls-10"><rect class="cls-4" x="5" width="8" height="112"/></g><path class="cls-4" d="M597,287c0,2.21-12.31,4-22.8,4s-15.2-1.79-15.2-4,4.71-4,15.2-4S597,284.79,597,287Z" transform="translate(-206 -231)"/><ellipse class="cls-4" cx="87" cy="19" rx="2" ry="1"/><ellipse class="cls-4" cx="87" cy="56" rx="2" ry="1"/><ellipse class="cls-4" cx="87" cy="93" rx="2" ry="1"/><ellipse class="cls-4" cx="171" cy="16" rx="2" ry="1"/><ellipse class="cls-4" cx="171" cy="56" rx="2" ry="1"/><ellipse class="cls-4" cx="171" cy="96" rx="2" ry="1"/><ellipse class="cls-4" cx="339" cy="32" rx="2" ry="1"/><ellipse class="cls-4" cx="339" cy="56" rx="2" ry="1"/><ellipse class="cls-4" cx="339" cy="82" rx="2" ry="1"/><ellipse class="cls-4" cx="255" cy="21" rx="2" ry="1"/><ellipse class="cls-4" cx="255" cy="56" rx="2" ry="1"/><ellipse class="cls-4" cx="255" cy="92" rx="2" ry="1"/><path class="cls-4" d="M437,322c0,2.21-4.69,4-8,4s-4-1.79-4-4,.69-4,4-4S437,319.79,437,322Z" transform="translate(-206 -231)"/></svg>